<svg xmlns="http://www.w3.org/2000/svg" width="430" height="430" fill="none" viewBox="0 0 430 430"><path fill="#ffc738" d="M375.12 215a160.222 160.222 0 0 1-273.513 113.393A160.23 160.23 0 0 1 66.895 153.74 160.22 160.22 0 0 1 215 54.88 159.34 159.34 0 0 1 375.12 215"/><path fill="#ffc738" d="M375.12 215a160.222 160.222 0 0 1-273.513 113.393A160.23 160.23 0 0 1 66.895 153.74 160.22 160.22 0 0 1 215 54.88 159.34 159.34 0 0 1 375.12 215" opacity=".5" style="mix-blend-mode:multiply"/><path fill="#ffc738" d="M353.45 295.48a160.76 160.76 0 0 1-75.51 66.8l-28.49-32.22L105 166.72l-28.47-32.2a160.76 160.76 0 0 1 75.51-66.8l28.49 32.22L325 263.28z"/><path stroke="#b26836" stroke-linecap="round" stroke-linejoin="round" stroke-width="7" d="M299.912 299.916c46.898-46.898 46.898-122.934 0-169.832s-122.935-46.898-169.833 0-46.898 122.934 0 169.832c46.898 46.899 122.935 46.899 169.833 0"/></svg>