<?xml version="1.0" encoding="utf-8"?>
<!-- Generator: Adobe Illustrator 18.0.0, SVG Export Plug-In . SVG Version: 6.00 Build 0)  -->
<!DOCTYPE svg PUBLIC "-//W3C//DTD SVG 1.1//EN" "http://www.w3.org/Graphics/SVG/1.1/DTD/svg11.dtd">
<svg version="1.1" id="Icon_Set" xmlns="http://www.w3.org/2000/svg" xmlns:xlink="http://www.w3.org/1999/xlink" x="0px" y="0px"
	 viewBox="0 0 256 256" style="enable-background:new 0 0 256 256;" xml:space="preserve">
<style type="text/css">
	.st0{fill:#4C4372;}
	.st1{fill:#F1C48B;}
	.st2{fill:#FFFFFF;}
	.st3{fill:#A3D0F1;}
	.st4{fill:#7BACF1;}
	.st5{fill:#D4E7F8;}
	.st6{fill:#FD919E;}
	.st7{fill:#D3E6F7;}
	.st8{fill:#E8677D;}
	.st9{fill:#D3E6F8;}
</style>
<g>
	<g>
		<circle class="st1" cx="128" cy="128" r="104.245"/>
	</g>
	<g>
		<circle class="st7" cx="128" cy="128" r="81"/>
	</g>
	<g>
		<path class="st3" d="M128,47c-2.36,0-4.691,0.123-7,0.321c41.455,3.552,74,38.304,74,80.679c0,42.375-32.545,77.128-74,80.679
			c2.309,0.198,4.64,0.321,7,0.321c44.735,0,81-36.265,81-81C209,83.265,172.735,47,128,47z"/>
	</g>
	<g>
		<path class="st0" d="M128,99.408c-26.558,0-50.933-6.192-66.875-16.988c-0.676-0.458-1.137-1.172-1.275-1.977
			c-0.138-0.805,0.059-1.632,0.544-2.289C76.188,56.768,101.461,44,128,44s51.812,12.768,67.605,34.154
			c0.485,0.657,0.682,1.484,0.544,2.289c-0.138,0.805-0.599,1.519-1.275,1.977C178.933,93.216,154.558,99.408,128,99.408z
			 M67.184,79.172C82.04,88.125,104.455,93.408,128,93.408s45.96-5.284,60.816-14.236C174.068,60.849,151.571,50,128,50
			S81.932,60.849,67.184,79.172z"/>
	</g>
	<g>
		<path class="st0" d="M128,212c-26.539,0-51.812-12.768-67.605-34.154c-0.485-0.657-0.682-1.484-0.544-2.289
			c0.138-0.805,0.599-1.519,1.275-1.977c15.941-10.796,40.316-16.988,66.875-16.988s50.933,6.192,66.875,16.988
			c0.676,0.458,1.137,1.172,1.275,1.977c0.138,0.805-0.059,1.632-0.544,2.289C179.812,199.232,154.539,212,128,212z M67.184,176.828
			C81.932,195.151,104.429,206,128,206s46.068-10.849,60.816-29.172c-14.855-8.952-37.271-14.236-60.816-14.236
			S82.04,167.875,67.184,176.828z"/>
	</g>
	<g>
		<path class="st0" d="M128,212c-46.318,0-84-37.682-84-84s37.682-84,84-84s84,37.682,84,84S174.318,212,128,212z M128,50
			c-43.009,0-78,34.991-78,78s34.991,78,78,78s78-34.991,78-78S171.009,50,128,50z"/>
	</g>
	<g>
		<path class="st0" d="M128,212c-24.393,0-43.5-36.897-43.5-84s19.107-84,43.5-84s43.5,36.897,43.5,84S152.393,212,128,212z M128,50
			c-20.327,0-37.5,35.72-37.5,78s17.173,78,37.5,78s37.5-35.72,37.5-78S148.327,50,128,50z"/>
	</g>
	<g>
		<path class="st0" d="M209,131H47c-1.657,0-3-1.343-3-3s1.343-3,3-3h162c1.657,0,3,1.343,3,3S210.657,131,209,131z"/>
	</g>
	<g>
		<path class="st0" d="M128,212c-1.657,0-3-1.343-3-3V47c0-1.657,1.343-3,3-3s3,1.343,3,3v162C131,210.657,129.657,212,128,212z"/>
	</g>
</g>
</svg>
