<?xml version="1.0" encoding="UTF-8"?>
<svg version="1.1" xmlns="http://www.w3.org/2000/svg" width="1622" height="1209">
<path d="M0 0 C14.52 0 29.04 0 44 0 C44 398.64 44 797.28 44 1208 C-43.45 1208 -130.9 1208 -221 1208 C-230.19036877 1188.47046636 -239.31133885 1168.96535556 -248.20703125 1149.30859375 C-252.11815553 1140.68777323 -256.14465256 1132.12216318 -260.1875 1123.5625 C-260.52638245 1122.84492523 -260.86526489 1122.12735046 -261.2144165 1121.38803101 C-261.55116394 1120.6749881 -261.88791138 1119.96194519 -262.23486328 1119.22729492 C-267.66002256 1107.73873682 -273.0033782 1096.21425373 -278.31103516 1084.67089844 C-281.72117453 1077.2565347 -285.14277083 1069.84744388 -288.5625 1062.4375 C-288.9429245 1061.61309418 -289.323349 1060.78868835 -289.71530151 1059.93930054 C-297.99280385 1042.00250087 -306.29884253 1024.07896725 -314.60888672 1006.15722656 C-318.17836205 998.4589009 -321.7458596 990.75965871 -325.31350708 983.06048584 C-327.29225711 978.79028638 -329.27113502 974.52014619 -331.25 970.25 C-332.04166728 968.54166695 -332.83333395 966.83333362 -333.625 965.125 C-334.2128125 963.8565625 -334.2128125 963.8565625 -334.8125 962.5625 C-355 919 -375.1875 875.4375 -395.375 831.875 C-395.76684479 831.02944046 -396.15868958 830.18388092 -396.56240845 829.31269836 C-397.35438111 827.6037042 -398.14635295 825.89470965 -398.93832397 824.18571472 C-400.91280226 819.92498907 -402.88729458 815.66426993 -404.86181641 811.40356445 C-408.48028232 803.59545083 -412.09862972 795.78728238 -415.71647644 787.97888184 C-417.76925102 783.54839036 -419.82212199 779.11794355 -421.875 774.6875 C-422.27621063 773.82159241 -422.67742126 772.95568481 -423.09078979 772.0635376 C-427.9091043 761.66475284 -432.7324616 751.26834489 -437.5625 740.875 C-442.60183187 730.0293416 -447.6158792 719.17213508 -452.625 708.3125 C-461.26388405 689.58366755 -469.93261748 670.86876406 -478.60888672 652.15722656 C-482.17836205 644.4589009 -485.7458596 636.75965871 -489.31350708 629.06048584 C-491.29225711 624.79028638 -493.27113502 620.52014619 -495.25 616.25 C-496.04166728 614.54166695 -496.83333395 612.83333362 -497.625 611.125 C-498.2128125 609.8565625 -498.2128125 609.8565625 -498.8125 608.5625 C-512.66666667 578.66666667 -526.52083333 548.77083333 -540.375 518.875 C-540.76684479 518.02944046 -541.15868958 517.18388092 -541.56240845 516.31269836 C-542.35438111 514.6037042 -543.14635295 512.89470965 -543.93832397 511.18571472 C-545.91280226 506.92498907 -547.88729458 502.66426993 -549.86181641 498.40356445 C-553.48028232 490.59545083 -557.09862972 482.78728238 -560.71647644 474.97888184 C-562.76925102 470.54839036 -564.82212199 466.11794355 -566.875 461.6875 C-567.27621063 460.82159241 -567.67742126 459.95568481 -568.09078979 459.0635376 C-572.9091043 448.66475284 -577.7324616 438.26834489 -582.5625 427.875 C-587.60183187 417.0293416 -592.6158792 406.17213508 -597.625 395.3125 C-606.26388405 376.58366755 -614.93261748 357.86876406 -623.60888672 339.15722656 C-627.17836205 331.4589009 -630.7458596 323.75965871 -634.31350708 316.06048584 C-636.29225711 311.79028638 -638.27113502 307.52014619 -640.25 303.25 C-641.04166728 301.54166695 -641.83333395 299.83333362 -642.625 298.125 C-643.016875 297.279375 -643.40875 296.43375 -643.8125 295.5625 C-657.66666667 265.66666667 -671.52083333 235.77083333 -685.375 205.875 C-685.76684479 205.02944046 -686.15868958 204.18388092 -686.56240845 203.31269836 C-687.35438111 201.6037042 -688.14635295 199.89470965 -688.93832397 198.18571472 C-690.91280226 193.92498907 -692.88729458 189.66426993 -694.86181641 185.40356445 C-698.48028232 177.59545083 -702.09862972 169.78728238 -705.71647644 161.97888184 C-707.76925102 157.54839036 -709.82212199 153.11794355 -711.875 148.6875 C-712.27621063 147.82159241 -712.67742126 146.95568481 -713.09078979 146.0635376 C-717.90910425 135.66475294 -722.73238286 125.26830825 -727.5625 114.875 C-733.79308837 101.46790851 -739.98484294 88.04292278 -746.17407227 74.61669922 C-746.74294914 73.38306641 -746.74294914 73.38306641 -747.32331848 72.12451172 C-748.04054489 70.56913809 -748.75750632 69.01364225 -749.47416687 67.45800781 C-751.19793053 63.71031796 -751.19793053 63.71031796 -753 60 C-786.47830394 59.97704245 -819.95660591 59.95945563 -853.43491599 59.94893467 C-857.39964453 59.94768417 -861.36437305 59.94638983 -865.32910156 59.94506836 C-866.51291368 59.94467489 -866.51291368 59.94467489 -867.7206412 59.94427348 C-880.4499537 59.9399384 -893.17926162 59.9320629 -905.90857142 59.9228472 C-918.99875068 59.91345026 -932.08892756 59.90793168 -945.17911005 59.90591151 C-953.2372097 59.90454875 -961.2952964 59.90026656 -969.35339206 59.89208353 C-975.56314097 59.88610401 -981.77288029 59.88555615 -987.98263168 59.88689232 C-990.5074916 59.88662013 -993.03235206 59.8846708 -995.55720901 59.88079453 C-1025.45909868 59.80301674 -1025.45909868 59.80301674 -1055.25 62.125 C-1056.81500244 62.31122925 -1056.81500244 62.31122925 -1058.41162109 62.5012207 C-1152.0981607 74.49477728 -1243.68578976 112.90373195 -1320 172 C-1320.59280762 172.45536133 -1321.18561523 172.91072266 -1321.79638672 173.37988281 C-1334.91784699 183.46122256 -1347.33294135 194.25064143 -1359.42529297 205.53857422 C-1360.9840856 206.98523045 -1362.55386699 208.41871904 -1364.12890625 209.84765625 C-1372.49554285 217.43825315 -1380.68259403 225.15345905 -1388.03125 233.75 C-1390.07769493 236.08879421 -1392.18379716 238.36052829 -1394.30517578 240.63110352 C-1400.14411637 246.88503568 -1405.66177947 253.30931084 -1411 260 C-1411.92091185 261.12969208 -1412.84284111 262.25855532 -1413.765625 263.38671875 C-1465.4997484 326.90901554 -1501.28951396 401.70789794 -1521 481 C-1521.27440918 482.09151367 -1521.54881836 483.18302734 -1521.83154297 484.30761719 C-1537.17386803 546.18927708 -1540.18794352 611.77344246 -1533 675 C-1532.86078125 676.25458008 -1532.7215625 677.50916016 -1532.578125 678.80175781 C-1526.52496673 731.52868969 -1512.19092825 783.37466246 -1491 832 C-1490.56365234 833.00353516 -1490.12730469 834.00707031 -1489.67773438 835.04101562 C-1475.68604997 866.94205607 -1458.83993585 897.364598 -1439 926 C-1438.57944336 926.60811523 -1438.15888672 927.21623047 -1437.72558594 927.84277344 C-1428.31557238 941.38037805 -1418.31906145 954.50500438 -1407.5625 967 C-1405.07033681 969.91765446 -1402.65483067 972.88521052 -1400.25 975.875 C-1397.26279493 979.54788025 -1394.17922973 982.95448626 -1390.7668457 986.23217773 C-1389.07026832 987.92969285 -1387.52336398 989.68494532 -1385.97265625 991.515625 C-1381.70119755 996.42926842 -1377.12345357 1001.02720153 -1372.51196289 1005.6184082 C-1371.06475615 1007.06025221 -1369.62297974 1008.50737116 -1368.18164062 1009.95507812 C-1362.95679144 1015.18362034 -1357.61312022 1020.19190328 -1352 1025 C-1350.4551874 1026.4132355 -1348.91304675 1027.82940409 -1347.375 1029.25 C-1342.33313661 1033.7992233 -1337.04817302 1037.9690272 -1331.68359375 1042.125 C-1329.25295809 1044.01042835 -1326.85161533 1045.92479527 -1324.47265625 1047.875 C-1258.30690482 1102.02460908 -1176.39676753 1137.86610386 -1074.375 1158.375 C-1073.69823212 1158.49056244 -1073.02146423 1158.60612488 -1072.32418823 1158.72518921 C-1068.0928183 1159.43826287 -1063.85422748 1160.05750135 -1059.60289478 1160.63865566 C-1057.89643735 1160.87555296 -1056.19118093 1161.12130734 -1054.48741436 1161.37683964 C-1029.56793332 1165.03585959 -1004.4355577 1164.48122839 -979.3134203 1164.50611091 C-972.88597364 1164.51560171 -966.4585936 1164.54181213 -960.03118896 1164.56611633 C-949.27633416 1164.60459103 -938.52150405 1164.63306347 -927.76660156 1164.65356445 C-916.70537698 1164.67467756 -905.64419595 1164.70204098 -894.58300781 1164.73754883 C-893.8973811 1164.73974765 -893.21175438 1164.74194648 -892.5053511 1164.74421193 C-889.064624 1164.75528414 -885.62389731 1164.76647647 -882.1831708 1164.77772844 C-853.78881924 1164.87043004 -825.39444228 1164.94203049 -797 1165 C-799.04608657 1160.48986498 -801.09309261 1155.98014878 -803.14089966 1151.47079468 C-803.83535767 1149.94124242 -804.52957759 1148.41158203 -805.22354126 1146.88180542 C-810.04164081 1136.26131943 -814.92413202 1125.67731848 -819.96508789 1115.16040039 C-826.26714665 1102.00472264 -832.41151684 1088.78673244 -838.40673828 1075.48876953 C-843.47235782 1064.26174694 -848.70312987 1053.11962301 -854 1042 C-859.92990277 1029.55146309 -865.73960905 1017.05899316 -871.40673828 1004.48876953 C-876.47235782 993.26174694 -881.70312987 982.11962301 -887 971 C-892.92990277 958.55146309 -898.73960905 946.05899316 -904.40673828 933.48876953 C-909.47235782 922.26174694 -914.70312987 911.11962301 -920 900 C-925.61339111 888.21591025 -931.1350879 876.39931541 -936.5 864.5 C-941.93048408 852.45676964 -947.51363808 840.49298791 -953.1875 828.5625 C-959.63786108 814.99750071 -966.00402768 801.39907787 -972.27392578 787.74951172 C-975.95698962 779.74170205 -979.66871749 771.74708039 -983.375 763.75 C-983.99337234 762.41550308 -983.99337234 762.41550308 -984.62423706 761.05404663 C-990.28042206 748.84871138 -995.95581998 736.65260862 -1001.65185547 724.46582031 C-1006.62407408 713.82111103 -1011.56338202 703.16125844 -1016.5 692.5 C-1021.82618169 680.99756251 -1027.15762062 669.49773678 -1032.52233887 658.01321411 C-1033.3647234 656.20950421 -1034.20629255 654.40541357 -1035.04785156 652.60131836 C-1037.60792881 647.11430038 -1040.17261383 641.62956799 -1042.75198364 636.15159607 C-1043.96485628 633.57353851 -1045.17359989 630.99355747 -1046.38165283 628.41323853 C-1047.22255659 626.62099109 -1048.06895084 624.83132292 -1048.91552734 623.04174805 C-1049.42293457 621.95676025 -1049.9303418 620.87177246 -1050.453125 619.75390625 C-1050.89817383 618.80845947 -1051.34322266 617.8630127 -1051.80175781 616.88891602 C-1053.1290571 613.68884827 -1054.04825257 610.331116 -1055 607 C-970.52 607 -886.04 607 -799 607 C-794.05 617.89 -789.1 628.78 -784 640 C-780.03891765 648.4303755 -780.03891765 648.4303755 -776.03491211 656.83959961 C-769.73285335 669.99527736 -763.58848316 683.21326756 -757.59326172 696.51123047 C-752.52764218 707.73825306 -747.29687013 718.88037699 -742 730 C-736.07009723 742.44853691 -730.26039095 754.94100684 -724.59326172 767.51123047 C-719.52764218 778.73825306 -714.29687013 789.88037699 -709 801 C-703.38660889 812.78408975 -697.8649121 824.60068459 -692.5 836.5 C-687.06951592 848.54323036 -681.48636192 860.50701209 -675.8125 872.4375 C-669.36213892 886.00249929 -662.99597232 899.60092213 -656.72607422 913.25048828 C-653.04301041 921.25829787 -649.33129924 929.25292744 -645.625 937.25 C-645.21474579 938.13534424 -644.80449158 939.02068848 -644.38180542 939.93286133 C-638.57868226 952.45497665 -632.75669932 964.96812092 -626.9152832 977.47241211 C-619.39494576 993.57178059 -611.92077445 1009.69254817 -604.453125 1025.81640625 C-602.82298276 1029.33596812 -601.19277158 1032.85549804 -599.5625 1036.375 C-599.15238678 1037.26039459 -598.74227356 1038.14578918 -598.31973267 1039.05801392 C-592.68271951 1051.22644539 -587.02639034 1063.38553579 -581.34790039 1075.53466797 C-576.37579751 1086.17923055 -571.43654157 1096.83890658 -566.5 1107.5 C-560.89158444 1119.61195058 -555.27451099 1131.7196584 -549.625 1143.8125 C-532.29641915 1180.91228083 -532.29641915 1180.91228083 -524.1875 1198.6875 C-523.76049805 1199.62078125 -523.33349609 1200.5540625 -522.89355469 1201.515625 C-522.50973633 1202.35996094 -522.12591797 1203.20429687 -521.73046875 1204.07421875 C-521.22616333 1205.18156372 -521.22616333 1205.18156372 -520.71166992 1206.3112793 C-520 1208 -520 1208 -520 1209 C-571.03373031 1209.05140131 -622.06746247 1209.09915708 -673.10121155 1209.12702942 C-674.23580721 1209.12765068 -674.23580721 1209.12765068 -675.393324 1209.12828448 C-691.83541916 1209.13726508 -708.2775146 1209.14557536 -724.71961045 1209.15319599 C-732.7838582 1209.1569377 -740.84810587 1209.16082741 -748.91235352 1209.16479492 C-750.11603037 1209.16538334 -750.11603037 1209.16538334 -751.34402393 1209.16598364 C-777.31176525 1209.1787472 -803.27948687 1209.20126576 -829.24721627 1209.22889166 C-855.95243733 1209.25725027 -882.6576475 1209.2756704 -909.36288336 1209.28174497 C-913.14257801 1209.28260932 -916.92227263 1209.28358623 -920.70196724 1209.28463173 C-921.44579977 1209.284834 -922.18963231 1209.28503627 -922.95600522 1209.28524467 C-934.88642182 1209.28877745 -946.81680456 1209.30265802 -958.7472074 1209.3204961 C-970.76747282 1209.33824452 -982.78770499 1209.3448824 -994.80798303 1209.34050413 C-1001.31019238 1209.33843587 -1007.81232256 1209.34143397 -1014.31451607 1209.35761642 C-1020.2847237 1209.37236521 -1026.25476776 1209.37285664 -1032.2249834 1209.36269668 C-1034.36808221 1209.36144359 -1036.51119182 1209.36512112 -1038.65426981 1209.37464955 C-1060.1205779 1209.46442701 -1081.12568778 1207.1045062 -1102.0625 1202.375 C-1102.83715607 1202.20326263 -1103.61181213 1202.03152527 -1104.40994263 1201.85458374 C-1178.71180945 1185.34922418 -1250.2913674 1155.3319104 -1313 1112 C-1313.6172998 1111.57428711 -1314.23459961 1111.14857422 -1314.87060547 1110.70996094 C-1347.91483636 1087.85456644 -1378.08455662 1061.97003796 -1406.5 1033.625 C-1407.11450012 1033.01317871 -1407.72900024 1032.40135742 -1408.36212158 1031.77099609 C-1414.79468951 1025.35969321 -1421.15229818 1018.95784834 -1427 1012 C-1427.94916929 1010.90507691 -1428.8996596 1009.81129738 -1429.8515625 1008.71875 C-1442.58990648 993.96944732 -1454.60907359 978.81563192 -1466 963 C-1466.56831543 962.2167334 -1467.13663086 961.4334668 -1467.72216797 960.62646484 C-1525.06027714 881.40008461 -1560.75933503 787.44438904 -1573.75 690.75 C-1573.85123169 690.00808411 -1573.95246338 689.26616821 -1574.0567627 688.50177002 C-1577.38638566 663.79618751 -1578.38267503 639.0792672 -1578.31805801 614.17764282 C-1578.31240492 611.96274747 -1578.3095926 609.74785981 -1578.30697632 607.53295898 C-1578.26982468 585.88788136 -1577.78359744 564.4893722 -1575 543 C-1574.82578874 541.58327746 -1574.65247624 540.16644416 -1574.47998047 538.74951172 C-1564.38198829 456.64397318 -1537.52929915 376.3088613 -1463.43115234 257.85498047 C-1461.43696431 255.27022429 -1459.50099345 252.64376826 -1457.55957031 250.01928711 C-1439.1061183 225.12879436 -1418.48270702 202.41199874 -1396.625 180.5 C-1396.01317871 179.88549988 -1395.40135742 179.27099976 -1394.77099609 178.63787842 C-1388.35969321 172.20531049 -1381.95784834 165.84770182 -1375 160 C-1373.90507691 159.05083071 -1372.81129738 158.1003404 -1371.71875 157.1484375 C-1295.65299891 91.45369084 -1204.4361259 44.23402351 -1094.75 20.0625 C-1094.06434967 19.91865875 -1093.37869934 19.7748175 -1092.67227173 19.62661743 C-1071.59792509 15.24716489 -1050.46252425 14.70574533 -1029.00244141 14.75708008 C-1026.34659232 14.75602444 -1023.69075412 14.75418027 -1021.03490734 14.75139618 C-1014.57289495 14.7464301 -1008.1109341 14.75207423 -1001.64892812 14.76130307 C-993.95236988 14.77182795 -986.25582298 14.77102116 -978.55925909 14.77005186 C-963.62955911 14.76860615 -948.69988539 14.77898879 -933.77019463 14.79470261 C-920.81281013 14.80832257 -907.85543133 14.81747811 -894.89804077 14.82275391 C-814.74474118 14.85643062 -734.59199552 14.9900743 -517 16 C-515.8723469 18.24871002 -514.74540383 20.49777115 -513.61886597 22.74703979 C-513.30093425 23.38086169 -512.98300253 24.01468359 -512.65543652 24.66771221 C-510.56072865 28.8518169 -508.54459852 33.05016866 -506.6328125 37.3203125 C-506.06036835 38.59174504 -505.48785556 39.86314668 -504.9152832 41.13452148 C-504.47884995 42.10770828 -504.47884995 42.10770828 -504.03359985 43.10055542 C-498.26788706 55.94709724 -492.34630548 68.71488687 -486.3125 81.4375 C-479.93938687 94.87940934 -473.65346066 108.35668441 -467.44042969 121.87353516 C-464.93213961 127.31780002 -462.40245336 132.75211224 -459.875 138.1875 C-454.68920082 149.34537298 -449.52826223 160.51456874 -444.375 171.6875 C-436.14116077 189.53855463 -427.88066583 207.37715947 -419.61073303 225.21151733 C-416.76211407 231.35501676 -413.91574646 237.49955608 -411.0703125 243.64453125 C-404.04550816 258.81382885 -397.01745903 273.98135328 -389.9375 289.125 C-383.92313755 301.9913456 -377.96797681 314.8846193 -372.02099609 327.78222656 C-364.57245889 343.93531338 -357.09367804 360.07430963 -349.61074829 376.21148682 C-346.76212237 382.35499555 -343.91575123 388.49954576 -341.0703125 394.64453125 C-334.04550816 409.81382885 -327.01745903 424.98135328 -319.9375 440.125 C-314.69563132 451.33877279 -309.49586713 462.57157161 -304.3125 473.8125 C-297.96964086 487.56775174 -291.61844169 501.31907047 -285.25 515.0625 C-284.84908142 515.92773285 -284.44816284 516.7929657 -284.03509521 517.68441772 C-279.01982395 528.50605129 -273.98860103 539.32004887 -268.9375 550.125 C-262.92318439 562.9913677 -256.96797696 575.88461898 -251.02099609 588.78222656 C-243.57245889 604.93531338 -236.09367804 621.07430963 -228.61074829 637.21148682 C-225.76212237 643.35499555 -222.91575123 649.49954576 -220.0703125 655.64453125 C-213.04550816 670.81382885 -206.01745903 685.98135328 -198.9375 701.125 C-193.69563132 712.33877279 -188.49586713 723.57157161 -183.3125 734.8125 C-176.96964086 748.56775174 -170.61844169 762.31907047 -164.25 776.0625 C-163.84908142 776.92773285 -163.44816284 777.7929657 -163.03509521 778.68441772 C-158.01982395 789.50605129 -152.98860103 800.32004887 -147.9375 811.125 C-141.92318439 823.9913677 -135.96797696 836.88461898 -130.02099609 849.78222656 C-122.57245889 865.93531338 -115.09367804 882.07430963 -107.61074829 898.21148682 C-104.76212237 904.35499555 -101.91575123 910.49954576 -99.0703125 916.64453125 C-92.04550816 931.81382885 -85.01745903 946.98135328 -77.9375 962.125 C-71.92313755 974.9913456 -65.96797681 987.8846193 -60.02099609 1000.78222656 C-52.57245889 1016.93531338 -45.09367804 1033.07430963 -37.61074829 1049.21148682 C-34.76212237 1055.35499557 -31.9157742 1061.49955639 -29.0703125 1067.64453125 C-27.83693224 1070.30765066 -26.60351551 1072.97075319 -25.37008667 1075.6338501 C-24.60946417 1077.27632048 -23.84897548 1078.91885285 -23.08865356 1080.5614624 C-15.7613125 1096.39102954 -8.37654918 1112.19310889 -1 1128 C-0.67 755.76 -0.34 383.52 0 0 Z " fill="#FDFDFD" transform="translate(1578,0)"/>
</svg>
